Coordinates
version=1
nRows=12
nColumns=42
inDegrees=yes

Units are S.I. units (second, meters, Newtons, ...)
If the header above contains a line with 'inDegrees', this indicates whether rotational values are in degrees (yes) or radians (no).

endheader
time	pelvis_tilt	pelvis_list	pelvis_rotation	pelvis_tx	pelvis_ty	pelvis_tz	hip_flexion_r	hip_adduction_r	hip_rotation_r	knee_angle_r	knee_angle_r_beta	ankle_angle_r	subtalar_angle_r	mtp_angle_r	hip_flexion_l	hip_adduction_l	hip_rotation_l	knee_angle_l	knee_angle_l_beta	ankle_angle_l	subtalar_angle_l	mtp_angle_l	lumbar_extension	lumbar_bending	lumbar_rotation	sh_tx_r	sh_ty_r	sh_tz_r	sh_plane_elev_r	sh_elev_r	sh_axial_rot_r	elbow_flex_r	pro_sup_r	sh_tx_l	sh_ty_l	sh_tz_l	sh_plane_elev_l	sh_elev_l	sh_axial_rot_l	elbow_flex_l	pro_sup_l
      1.88333330	     -2.94046748	      0.15366639	     -2.61981952	      0.26736497	      0.95463300	     -0.06171348	      0.89405251	     -5.07723681	     -3.04231168	      0.47468705	      0.00828485	      1.38748773	     -2.48696855	     -7.49999987	      1.99159156	     -2.74465403	     -2.90377396	      1.68429608	      0.02939651	      5.96126445	     -3.67496486	     -7.49999987	     -2.39739539	     -6.55565142	      3.44472891	     -0.00993193	     -0.00741205	     -0.00732784	     21.40736308	    146.51097252	      4.01909689	      4.89098380	     24.11118374	     -0.00273042	      0.00252734	     -0.00685996	     62.43997912	     14.43935642	     -5.96320309	     12.81400341	     35.38444252
      1.90000000	     -3.07831366	      0.17842900	     -2.60480778	      0.26747447	      0.95093337	     -0.06148908	      1.06337206	     -5.10713890	     -3.05312527	      0.49758752	      0.00868454	      1.33830827	     -2.39974854	     -7.49999987	      2.15869192	     -2.71026757	     -2.90895833	      1.72591886	      0.03012297	      6.01180399	     -3.70080229	     -7.49999987	     -2.21592176	     -6.45947260	      3.37624106	     -0.00880304	     -0.00552953	     -0.00718545	     21.24541828	    147.45782235	      3.86432098	      4.26786198	     23.94615460	     -0.00274452	      0.00276682	     -0.00686719	     62.41558320	     14.46413472	     -6.04422906	     12.71874366	     35.32111959
      1.91666670	     -3.15179717	      0.20229988	     -2.63455072	      0.26776931	      0.95071940	     -0.06128899	      1.19847244	     -5.13197904	     -3.06973598	      0.50433989	      0.00880239	      1.41215383	     -2.21711667	     -7.49999987	      2.26461435	     -2.67714735	     -2.89318536	      1.77640190	      0.03100406	      6.02290866	     -3.76760044	     -7.49999987	     -2.22001229	     -6.42485589	      3.44043217	     -0.00915726	     -0.00335765	     -0.00712214	     20.32566140	    148.54087493	      3.05968365	      3.99179812	     24.13385217	     -0.00294792	      0.00285821	     -0.00684368	     61.88156122	     14.63407273	     -6.26675971	     13.26391621	     35.67971722
      1.93333330	     -3.24696301	      0.21966205	     -2.62194033	      0.27220552	      0.95054430	     -0.05714596	      1.27227159	     -5.11233500	     -2.96083836	      0.50820289	      0.00886981	      1.50545418	     -1.99539334	     -7.49999987	      2.34013274	     -2.70361712	     -2.88295409	      1.86677754	      0.03258141	      6.04619363	     -3.71360341	     -7.49999987	     -2.09721933	     -6.47223651	      3.39362833	     -0.00898804	     -0.00298918	     -0.00708829	     18.66319062	    149.99746753	      0.74834930	      3.74556370	     23.01182157	     -0.00329306	      0.00323723	     -0.00667650	     60.76610359	     14.56985752	     -6.50277374	     13.58485689	     35.49744929
      1.95000000	     -3.31305725	      0.26082366	     -2.65375180	      0.27236825	      0.95648286	     -0.05713052	      1.29308707	     -5.10427731	     -2.96969142	      0.50876868	      0.00887969	      1.47734295	     -1.88210954	     -7.49999987	      2.32817654	     -2.72155637	     -2.98099780	      1.83450600	      0.03201817	      5.94154625	     -3.70201693	     -7.49999987	     -1.85164715	     -6.55802128	      3.38052822	     -0.00954772	     -0.00354569	     -0.00709951	     18.06085284	    151.09200865	      0.72603078	      3.32396195	     22.93943043	     -0.00297778	      0.00266317	     -0.00651611	     60.25355495	     14.42351273	     -6.58737564	     13.10353894	     35.52479168
      1.96666670	     -3.30761493	      0.35898171	     -2.67681116	      0.26800135	      0.95597300	     -0.06139428	      1.29456830	     -5.25473386	     -3.09160764	      0.51396100	      0.00897031	      1.61336922	     -1.63412205	     -7.49999987	      2.34215527	     -2.58674705	     -2.90445150	      1.84407054	      0.03218510	      5.88638487	     -3.77291569	     -7.49999987	     -1.95849670	     -6.72086030	      3.34760985	     -0.00865110	     -0.00347340	     -0.00711191	     15.38563360	    152.36907356	     -0.47330792	      3.84698104	     22.02573377	     -0.00286325	      0.00268417	     -0.00669761	     58.62449047	     14.40748419	     -6.09843102	     14.10322681	     35.93624099
      1.98333330	     -3.35753117	      0.43714893	     -2.74114744	      0.27247159	      0.95577511	     -0.05696103	      1.31888936	     -5.29021290	     -2.93900913	      0.50460458	      0.00880701	      1.64300561	     -1.56356757	     -7.49999987	      2.32108407	     -2.55388275	     -2.95684303	      1.84499890	      0.03220131	      5.72607784	     -3.67297072	     -7.49999987	     -1.72193186	     -6.92202462	      3.14119121	     -0.00889101	     -0.00287088	     -0.00715252	     14.79485351	    153.18204173	     -0.34542711	      3.71235033	     21.95905958	     -0.00340543	      0.00304830	     -0.00657752	     58.28378794	     14.13679481	     -6.10762742	     13.71284481	     35.98783658
      2.00000000	     -3.36234135	      0.48201221	     -2.81842119	      0.27230660	      0.95508493	     -0.05686864	      1.31598317	     -5.32524808	     -2.96638250	      0.49135940	      0.00857584	      1.72923291	     -1.48451909	     -7.49999987	      2.27500808	     -2.50779136	     -3.11328458	      1.79054852	      0.03125097	      5.82250652	     -3.37769512	     -7.49999987	     -1.78568524	     -7.14688990	      4.11725611	     -0.00789434	     -0.00243700	     -0.00716573	      8.76055654	    154.24005066	      0.49263885	      6.53660199	     18.05905892	     -0.00073975	      0.00409251	     -0.00678336	     57.42891365	     14.05027250	     -5.58784168	     14.58952660	     38.45433950
      2.01666670	     -3.50280695	      0.51156356	     -2.90600225	      0.27237991	      0.95457852	     -0.05666403	      1.45446040	     -5.31176579	     -2.91257277	      0.48600187	      0.00848233	      1.78687317	     -1.54023155	     -7.49999987	      2.38033623	     -2.48764504	     -3.25114637	      1.74416644	      0.03044145	      5.84122104	     -3.21618748	     -7.49999987	     -1.43850167	     -7.27466781	      3.89099536	     -0.00697477	     -0.00142968	     -0.00720020	      7.49827311	    154.80391255	      0.71048320	      7.26049679	     19.81173029	     -0.00042631	      0.00487184	     -0.00676331	     56.25505141	     13.64780445	     -5.77660560	     14.75665376	     39.32587336
      2.03333330	     -3.42074304	      0.50005527	     -2.94720221	      0.27222328	      0.95432194	     -0.05669782	      1.32243870	     -5.26826061	     -2.93991870	      0.46228412	      0.00806838	      1.89276719	     -1.43656990	     -7.49999987	      2.22822425	     -2.50453778	     -3.28411603	      1.68171610	      0.02935148	      5.83631229	     -3.31557621	     -7.49999987	     -1.44292827	     -7.35812657	      3.89688739	     -0.00530979	     -0.00084523	     -0.00720802	      4.43091398	    155.44811870	      0.73935360	      8.45336808	     21.72026307	      0.00028605	      0.00534693	     -0.00682880	     54.76810256	     13.53529124	     -5.27019171	     15.32920885	     40.87284333
      2.05000000	     -3.37900941	      0.49875073	     -2.98530860	      0.27205708	      0.95406769	     -0.05672969	      1.27773868	     -5.23819423	     -2.96522691	      0.45050268	      0.00786276	      1.86540144	     -1.54947380	     -7.49999987	      2.14876781	     -2.53691300	     -3.41613393	      1.68725654	      0.02944818	      5.93350614	     -3.14874854	     -7.49999987	     -1.81479035	     -7.46570213	      6.32252724	     -0.00611314	     -0.00159996	     -0.00702763	     -8.02904979	    156.87580475	      0.81087320	     12.61866164	     12.47671824	      0.00285226	      0.00498063	     -0.00683637	     60.64399717	     14.53155198	     -5.46207172	     14.45744114	     37.06934112
      2.06666670	     -3.35668396	      0.50022766	     -2.99310562	      0.27199735	      0.95378673	     -0.05669898	      1.22252856	     -5.19360430	     -3.00671597	      0.43450741	      0.00758358	      1.89989673	     -1.51224702	     -7.49999987	      2.07943457	     -2.54540566	     -3.44590612	      1.64448658	      0.02870171	      5.92549295	     -3.22657475	     -7.49999987	     -1.67777813	     -7.53313171	      6.40946199	     -0.00611351	     -0.00110865	     -0.00701307	     -8.67081640	    157.23376756	      0.15124418	     11.41956683	     13.80470264	      0.00450212	      0.00511501	     -0.00694598	     59.85708823	     14.39157004	     -5.15219552	     14.78739146	     38.12707678
